<?xml version="1.0" encoding="utf-8"?>
<!-- Generator: Adobe Illustrator 24.0.0, SVG Export Plug-In . SVG Version: 6.00 Build 0)  -->
<svg version="1.1" id="Ebene_1" xmlns="http://www.w3.org/2000/svg" xmlns:xlink="http://www.w3.org/1999/xlink" x="0px" y="0px"
	 viewBox="0 0 234.3 52.5" style="enable-background:new 0 0 234.3 52.5;" xml:space="preserve">
<style type="text/css">
	.st0{fill:#05AFEC;}
	.st1{fill:#152644;}
</style>
<g id="XMLID_2713_">
	<g id="XMLID_2712_">
		<g id="XMLID_2727_">
			<path id="XMLID_2728_" class="st0" d="M28,39.1l2.3-7.1l-6-4.4h7.5l2.3-7.1l2.3,7.1h7.5l-6,4.4l2.3,7.1L34,34.7L28,39.1z
				 M35.2,33.9l2.2,1.6l-0.8-2.6L35.2,33.9z M31.5,32.9l-0.8,2.6l2.2-1.6L31.5,32.9z M31.9,31.5L34,33l2.1-1.5L35.3,29h-2.6
				L31.9,31.5z M28.5,29l2.2,1.6l0.5-1.6H28.5z M37.3,30.6l2.2-1.6h-2.7L37.3,30.6z M33.2,27.6h1.7L34,25L33.2,27.6z"/>
		</g>
		<g id="XMLID_2709_">
			<path id="XMLID_2726_" class="st0" d="M33.5,15L33.5,15c-1,0-1.9-0.9-1.9-1.9V1.9c0-1,0.9-1.9,1.9-1.9l0,0c1,0,1.9,0.9,1.9,1.9
				v11.3C35.3,14.2,34.5,15,33.5,15z"/>
			<path id="XMLID_2724_" class="st1" d="M16.1,22L16.1,22c-0.8,0.6-2,0.5-2.7-0.3l-5.7-7.3c-0.6-0.8-0.5-2,0.3-2.6l0,0
				c0.8-0.6,2-0.5,2.6,0.3l5.7,7.3C17.1,20.1,17,21.3,16.1,22z"/>
			<path id="XMLID_2723_" class="st1" d="M51.4,21.2L51.4,21.2c-0.8-0.7-0.9-1.9-0.2-2.7l6-7c0.7-0.8,1.9-0.9,2.7-0.2l0,0
				c0.8,0.7,0.9,1.9,0.2,2.7l-6,7C53.4,21.8,52.2,21.8,51.4,21.2z"/>
			<path id="XMLID_2715_" class="st1" d="M23.8,16.1L23.8,16.1c-1,0.4-2.1-0.1-2.4-1.1l-1.6-4.4c-0.4-1,0.1-2.1,1.1-2.4l0,0
				c1-0.4,2,0.1,2.4,1.1l1.6,4.4C25.3,14.7,24.8,15.8,23.8,16.1z"/>
			<path id="XMLID_2710_" class="st1" d="M43,16.1L43,16.1c-1-0.4-1.4-1.5-1-2.5l1.8-4.3c0.4-0.9,1.5-1.4,2.5-1l0,0
				c1,0.4,1.4,1.5,1,2.5l-1.8,4.3C45,16,43.9,16.5,43,16.1z"/>
		</g>
		<g id="XMLID_2707_">
			<path id="XMLID_2708_" class="st1" d="M34,45.3c-11.3,0-21.2-6.5-26-15.9H0c5.4,13.5,18.6,23.1,34,23.1s28.6-9.6,34-23.1h-8
				C55.2,38.8,45.3,45.3,34,45.3z"/>
		</g>
	</g>
	<g id="XMLID_2670_">
		<path id="XMLID_2749_" class="st0" d="M87.7,41.4h-4.3l-0.8,2.1h-1.3l3.5-9.5h1.4l3.5,9.5h-1.3L87.7,41.4 M87.3,40.2l-1.7-4.7
			l-1.7,4.7H87.3z"/>
		<path id="XMLID_2666_" class="st0" d="M90.3,40.1c0-2,1.5-3.6,3.6-3.6c1.3,0,2.5,0.7,3,1.8l-1,0.6c-0.3-0.7-1.1-1.2-2-1.2
			c-1.4,0-2.4,1-2.4,2.4s1,2.4,2.4,2.4c0.9,0,1.7-0.5,2.1-1.2l1,0.6c-0.6,1.1-1.7,1.8-3.1,1.8C91.8,43.7,90.3,42.1,90.3,40.1"/>
		<path id="XMLID_2665_" class="st0" d="M104.1,39.3v4.2h-1.2v-4.1c0-1.1-0.6-1.7-1.7-1.7s-2,0.6-2,2.2v3.6H98V34h1.2v3.7
			c0.5-0.8,1.2-1.2,2.2-1.2C103,36.5,104.1,37.6,104.1,39.3"/>
		<path id="XMLID_2744_" class="st0" d="M105.5,34.7c0-0.4,0.3-0.8,0.8-0.8c0.4,0,0.8,0.4,0.8,0.8s-0.3,0.8-0.8,0.8
			C105.9,35.5,105.5,35.1,105.5,34.7 M105.7,36.7h1.2v6.8h-1.2V36.7z"/>
		<path id="XMLID_2741_" class="st0" d="M112,42.5c0.9,0,1.6-0.4,1.9-1l1,0.6c-0.6,0.9-1.6,1.5-3,1.5c-2.2,0-3.6-1.5-3.6-3.6
			c0-2,1.4-3.6,3.6-3.6c2.1,0,3.4,1.7,3.4,3.6c0,0.2,0,0.3,0,0.5h-5.7C109.8,41.9,110.7,42.5,112,42.5 M109.5,39.6h4.5
			c-0.2-1.3-1.2-2-2.2-2C110.6,37.6,109.7,38.4,109.5,39.6z"/>
		<polyline id="XMLID_2660_" class="st0" points="122.3,36.7 119.6,43.5 118.2,43.5 115.5,36.7 116.8,36.7 118.9,42.2 121.1,36.7 
			122.3,36.7 		"/>
		<path id="XMLID_2737_" class="st0" d="M123.1,34.7c0-0.4,0.3-0.8,0.8-0.8c0.4,0,0.8,0.4,0.8,0.8s-0.3,0.8-0.8,0.8
			S123.1,35.1,123.1,34.7 M123.3,36.7h1.2v6.8h-1.2V36.7z"/>
		<path id="XMLID_2644_" class="st0" d="M132.3,39.3v4.2h-1.2v-4.1c0-1.1-0.6-1.7-1.7-1.7c-1.1,0-2,0.6-2,2.2v3.6h-1.2v-6.8h1.2v1
			c0.5-0.8,1.2-1.2,2.2-1.2C131.3,36.5,132.3,37.6,132.3,39.3"/>
		<path id="XMLID_2733_" class="st0" d="M140.8,36.7v6.5c0,2.1-1.7,3.2-3.5,3.2c-1.5,0-2.7-0.6-3.2-1.7l1-0.6
			c0.3,0.6,0.9,1.1,2.2,1.1c1.4,0,2.3-0.8,2.3-2.1v-1c-0.5,0.8-1.4,1.4-2.6,1.4c-1.9,0-3.5-1.6-3.5-3.5c0-2,1.5-3.5,3.5-3.5
			c1.1,0,2,0.5,2.6,1.3v-1.2L140.8,36.7 M139.6,40.1c0-1.4-1-2.4-2.4-2.4s-2.4,1-2.4,2.4s1,2.4,2.4,2.4S139.6,41.4,139.6,40.1z"/>
		<path id="XMLID_2640_" class="st0" d="M155.8,39.3v4.2h-1.2v-4.2c0-1.1-0.6-1.7-1.5-1.7s-1.7,0.6-1.7,2.1v3.8h-1.2v-4.2
			c0-1.1-0.6-1.7-1.4-1.7c-0.9,0-1.7,0.6-1.7,2.1v3.8h-1.2v-6.8h1.2v0.9c0.5-0.8,1.2-1.1,2-1.1c0.9,0,1.6,0.4,2,1.2
			c0.5-0.8,1.2-1.2,2.1-1.2C154.8,36.5,155.8,37.6,155.8,39.3"/>
		<path id="XMLID_2729_" class="st0" d="M157.1,40.1c0-2,1.6-3.6,3.6-3.6s3.6,1.6,3.6,3.6s-1.6,3.6-3.6,3.6
			C158.7,43.7,157.1,42.1,157.1,40.1 M163,40.1c0-1.4-1-2.4-2.4-2.4c-1.3,0-2.4,1-2.4,2.4s1,2.4,2.4,2.4S163,41.5,163,40.1z"/>
		<path id="XMLID_2634_" class="st0" d="M168.9,36.6v1.2c-1,0-2.1,0.5-2.1,2.1v3.6h-1.2v-6.8h1.2v1.1
			C167.2,36.9,168.1,36.6,168.9,36.6"/>
		<path id="XMLID_2725_" class="st0" d="M173,42.5c0.9,0,1.6-0.4,1.9-1l1,0.6c-0.6,0.9-1.6,1.5-3,1.5c-2.2,0-3.6-1.5-3.6-3.6
			c0-2,1.4-3.6,3.6-3.6c2.1,0,3.4,1.7,3.4,3.6c0,0.2,0,0.3,0,0.5h-5.7C170.8,41.9,171.7,42.5,173,42.5 M170.5,39.6h4.5
			c-0.2-1.3-1.2-2-2.2-2C171.6,37.6,170.7,38.4,170.5,39.6z"/>
		<path id="XMLID_2630_" class="st0" d="M182.9,37.8v3.7c0,1,0.6,1,1.8,0.9v1.1c-2,0.3-3-0.3-3-2v-3.7h-1.3v-1.1h1.3v-1.5l1.2-0.3
			v1.9h1.8v1.1L182.9,37.8"/>
		<path id="XMLID_2719_" class="st0" d="M185.4,40.1c0-2,1.6-3.6,3.6-3.6s3.6,1.6,3.6,3.6s-1.6,3.6-3.6,3.6
			C186.9,43.7,185.4,42.1,185.4,40.1 M191.3,40.1c0-1.4-1-2.4-2.4-2.4c-1.3,0-2.4,1-2.4,2.4s1,2.4,2.4,2.4S191.3,41.5,191.3,40.1z"
			/>
		<path id="XMLID_2714_" class="st0" d="M200.7,36.7v6.5c0,2.1-1.7,3.2-3.5,3.2c-1.5,0-2.7-0.6-3.2-1.7l1-0.6
			c0.3,0.6,0.9,1.1,2.2,1.1c1.4,0,2.3-0.8,2.3-2.1v-1c-0.5,0.8-1.4,1.4-2.6,1.4c-1.9,0-3.5-1.6-3.5-3.5c0-2,1.5-3.5,3.5-3.5
			c1.1,0,2,0.5,2.6,1.3v-1.2L200.7,36.7 M199.5,40.1c0-1.4-1-2.4-2.4-2.4s-2.4,1-2.4,2.4s1,2.4,2.4,2.4S199.5,41.4,199.5,40.1z"/>
		<path id="XMLID_2711_" class="st0" d="M205.8,42.5c0.9,0,1.6-0.4,1.9-1l1,0.6c-0.6,0.9-1.6,1.5-3,1.5c-2.2,0-3.6-1.5-3.6-3.6
			c0-2,1.4-3.6,3.6-3.6c2.1,0,3.4,1.7,3.4,3.6c0,0.2,0,0.3,0,0.5h-5.7C203.5,41.9,204.5,42.5,205.8,42.5 M203.3,39.6h4.5
			c-0.2-1.3-1.2-2-2.2-2C204.4,37.6,203.5,38.4,203.3,39.6z"/>
		<path id="XMLID_2623_" class="st0" d="M212.1,37.8v3.7c0,1,0.6,1,1.8,0.9v1.1c-2,0.3-3-0.3-3-2v-3.7h-1.3v-1.1h1.3v-1.5l1.2-0.3
			v1.9h1.8v1.1L212.1,37.8"/>
		<path id="XMLID_2622_" class="st0" d="M221.3,39.3v4.2h-1.2v-4.1c0-1.1-0.6-1.7-1.7-1.7c-1.1,0-2,0.6-2,2.2v3.6h-1.2V34h1.2v3.7
			c0.5-0.8,1.2-1.2,2.2-1.2C220.2,36.5,221.3,37.6,221.3,39.3"/>
		<path id="XMLID_2705_" class="st0" d="M226.2,42.5c0.9,0,1.6-0.4,1.9-1l1,0.6c-0.6,0.9-1.6,1.5-3,1.5c-2.2,0-3.6-1.5-3.6-3.6
			c0-2,1.4-3.6,3.6-3.6c2.1,0,3.4,1.7,3.4,3.6c0,0.2,0,0.3,0,0.5h-5.7C224,41.9,224.9,42.5,226.2,42.5 M223.7,39.6h4.5
			c-0.2-1.3-1.2-2-2.2-2C224.8,37.6,223.9,38.4,223.7,39.6z"/>
		<path id="XMLID_2619_" class="st0" d="M234.1,36.6v1.2c-1,0-2.1,0.5-2.1,2.1v3.6h-1.2v-6.8h1.2v1.1
			C232.4,36.9,233.2,36.6,234.1,36.6"/>
		<path id="XMLID_2618_" class="st0" d="M125,7.6l-0.3-0.1l-0.3,0.1c-1.4,0.3-3.6,1.7-4.9,3.5c-1.4-1.8-3.6-3.2-4.9-3.5l-0.3-0.1
			L114,7.6c-2.1,0.4-6.2,2.8-6.2,7.2v10.1h2.6V14.7c0-2.8,2.9-4.3,3.8-4.5c0.9,0.3,3.8,1.7,3.8,4.5v10.1h0.2h2.5h0.2V14.7
			c0-2.8,2.9-4.3,3.8-4.5c0.9,0.3,3.8,1.7,3.8,4.5v10.1h2.6V14.7C131.2,10.4,127.2,8,125,7.6"/>
		<path id="XMLID_2700_" class="st1" d="M134.2,16.8c0-4.7,3.8-8.4,8.4-8.4s8.5,3.7,8.5,8.4c0,4.8-3.8,8.5-8.5,8.5
			C138,25.2,134.2,21.5,134.2,16.8 M148.4,16.8c0-3.2-2.5-5.7-5.7-5.7s-5.6,2.5-5.6,5.7s2.5,5.7,5.6,5.7
			C145.9,22.5,148.4,20,148.4,16.8z"/>
		<path id="XMLID_2697_" class="st1" d="M163.2,16.8c0-4.7,3.8-8.4,8.4-8.4s8.5,3.7,8.5,8.4c0,4.8-3.8,8.5-8.5,8.5
			S163.2,21.5,163.2,16.8 M177.4,16.8c0-3.2-2.5-5.7-5.7-5.7s-5.6,2.5-5.6,5.7s2.5,5.7,5.6,5.7C174.9,22.5,177.4,20,177.4,16.8z"/>
		<path id="XMLID_2613_" class="st1" d="M182.6,16.8c0-4.7,3.6-8.4,8.4-8.4c3.2,0,5.9,1.7,7.1,4.2l-2.3,1.4
			c-0.8-1.7-2.6-2.8-4.8-2.8c-3.2,0-5.6,2.5-5.6,5.7s2.4,5.7,5.6,5.7c2.2,0,3.9-1.1,4.9-2.8l2.4,1.4c-1.4,2.5-4.1,4.2-7.2,4.2
			C186.1,25.2,182.6,21.5,182.6,16.8"/>
		<path id="XMLID_2612_" class="st1" d="M199.9,16.8c0-4.7,3.6-8.4,8.4-8.4c3.2,0,5.9,1.7,7.1,4.2l-2.3,1.4
			c-0.8-1.7-2.6-2.8-4.8-2.8c-3.2,0-5.6,2.5-5.6,5.7s2.4,5.7,5.6,5.7c2.2,0,3.9-1.1,4.9-2.8l2.4,1.4c-1.4,2.5-4.1,4.2-7.2,4.2
			C203.5,25.2,199.9,21.5,199.9,16.8"/>
		<path id="XMLID_2674_" class="st1" d="M217.2,16.8c0-4.7,3.8-8.4,8.4-8.4s8.5,3.7,8.5,8.4c0,4.8-3.8,8.5-8.5,8.5
			C220.9,25.2,217.2,21.5,217.2,16.8 M231.3,16.8c0-3.2-2.5-5.7-5.7-5.7s-5.6,2.5-5.6,5.7s2.5,5.7,5.6,5.7
			C228.8,22.5,231.3,20,231.3,16.8z"/>
		<path id="XMLID_2609_" class="st1" d="M157.2,24.8h-2.6V14.7c0-4.3,4-6.3,6.2-6.8l0.5,2.6c-0.2,0-4.1,0.9-4.1,4.2L157.2,24.8"/>
		<path id="XMLID_2608_" class="st1" d="M86.9,16.8c0-4.7,3.6-8.4,8.4-8.4c3.2,0,5.9,1.7,7.1,4.2l-2.3,1.4c-0.8-1.7-2.6-2.8-4.8-2.8
			c-3.2,0-5.7,2.5-5.7,5.7s2.4,5.7,5.7,5.7c2.2,0,3.9-1.1,4.8-2.8l2.4,1.4c-1.3,2.5-4.1,4.2-7.2,4.2C90.6,25.2,86.9,21.5,86.9,16.8"
			/>
		<polyline id="XMLID_2363_" class="st1" points="83.9,24.8 83.9,8.3 81.3,8.3 81.3,24.8 83.9,24.8 		"/>
	</g>
</g>
</svg>
